# xmcd CD database file
#
# Track frame offsets:
#	150
#	24075
#	55425
#	67725
#	86025
#	112200
#	132150
#
# Disc length: 2136 seconds
#
# Revision: 0
# Processed by: cddbd v1.5PL3 Copyright (c) Steve Scherf et al.
# Submitted via: CDex 1.51
#
DISCID=58085607
DTITLE=Kenny Burrell - Midnight Blue
DYEAR=1963
DGENRE=Jazz
TTITLE0=Chittlins Con Carne
TTITLE1=Mule
TTITLE2=Soul Lament
TTITLE3=Midnight Blue
TTITLE4=Wavy Gravy
TTITLE5=Gee Baby Ain't I Good To You
TTITLE6=Saturday Night Blues
EXTD=YEAR: 1963
EXTT0=
EXTT1=
EXTT2=
EXTT3=
EXTT4=
EXTT5=
EXTT6=
PLAYORDER=
